<?xml version="1.0" encoding="UTF-8" standalone="no"?>
<svg
   xmlns:dc="http://purl.org/dc/elements/1.1/"
   xmlns:cc="http://creativecommons.org/ns#"
   xmlns:rdf="http://www.w3.org/1999/02/22-rdf-syntax-ns#"
   xmlns:svg="http://www.w3.org/2000/svg"
   xmlns="http://www.w3.org/2000/svg"
   xmlns:sodipodi="http://sodipodi.sourceforge.net/DTD/sodipodi-0.dtd"
   xmlns:inkscape="http://www.inkscape.org/namespaces/inkscape"
   width="393pt"
   height="393pt"
   viewBox="0 0 393 393"
   version="1.1"
   id="svg3336"
   inkscape:version="0.91 r13725"
   sodipodi:docname="ctyrka.svg"
   inkscape:export-filename="E:\Downloads\oslava\images\ctyrka.png"
   inkscape:export-xdpi="90"
   inkscape:export-ydpi="90">
  <metadata
     id="metadata3356">
    <rdf:RDF>
      <cc:Work
         rdf:about="">
        <dc:format>image/svg+xml</dc:format>
        <dc:type
           rdf:resource="http://purl.org/dc/dcmitype/StillImage" />
        <dc:title></dc:title>
      </cc:Work>
    </rdf:RDF>
  </metadata>
  <defs
     id="defs3354" />
  <sodipodi:namedview
     pagecolor="#ffffff"
     bordercolor="#666667"
     borderopacity="0"
     objecttolerance="10"
     gridtolerance="10"
     guidetolerance="10"
     inkscape:pageopacity="0"
     inkscape:pageshadow="2"
     inkscape:window-width="1366"
     inkscape:window-height="716"
     id="namedview3352"
     showgrid="false"
     inkscape:snap-to-guides="true"
     inkscape:snap-grids="true"
     inkscape:zoom="2"
     inkscape:cx="255.1546"
     inkscape:cy="243.65493"
     inkscape:window-x="-4"
     inkscape:window-y="-4"
     inkscape:window-maximized="1"
     inkscape:current-layer="layer4"
     inkscape:object-nodes="true"
     showguides="true"
     inkscape:guide-bbox="true"
     inkscape:snap-intersection-paths="true"
     inkscape:snap-smooth-nodes="true"
     inkscape:snap-others="true"
     inkscape:showpageshadow="true"
     showborder="true" />
  <g
     inkscape:groupmode="layer"
     id="layer5"
     inkscape:label="pozadi"
     style="display:none;opacity:0.62300002">
    <rect
       style="opacity:1;fill:#809fe6;fill-opacity:0"
       id="rect3360"
       width="413.60001"
       height="392.00003"
       x="-34.399998"
       y="-10.199999" />
    <rect
       style="opacity:1;fill:#30a197;fill-opacity:0.88817887;stroke:#000000;stroke-width:0.80000001;stroke-opacity:1"
       id="rect4178"
       width="437.60001"
       height="376"
       x="-40.799999"
       y="14.6" />
  </g>
  <g
     inkscape:groupmode="layer"
     id="layer4"
     inkscape:label="logo"
     style="display:inline">
    <path
       style="fill:#000000"
       d="M 248.12695 47.5 C 243.49706 47.512864 238.86719 47.695703 234.25 48.050781 C 212.1125 49.750781 190.35078 55.325 169.73828 63.5 C 118.25078 85.8 76.3375 130.3625 59.1875 184 C 38.05 244.2875 49.738281 314.66211 88.175781 365.53711 C 124.28828 414.53711 183.82578 446.22578 244.98828 446.17578 C 265.65078 445.97578 286.72422 444.76289 306.38672 437.83789 C 322.51172 432.01289 339.03789 426.51289 353.65039 417.33789 C 388.88789 394.07539 419.0625 361.23789 433.6875 321.15039 C 441.1625 303.28789 446.78789 284.45 447.58789 265 C 453.33789 199.4375 424.0875 132.03828 372.4375 91.300781 C 337.70547 63.071094 292.88256 47.375645 248.12695 47.5 z M 248.51367 53.712891 C 294.49966 53.642942 340.31797 71.021094 374.80078 101.42578 C 425.40078 144.23828 450.04961 214.73789 438.47461 279.83789 C 432.94961 309.60039 421.31328 338.57422 402.55078 362.51172 C 366.73828 411.92422 305.8125 441.13828 245 439.92578 C 175.9625 439.77578 109.64961 398.31328 77.537109 337.48828 C 65.187109 313.72578 57.550781 287.475 55.550781 260.75 C 50.338281 198.4875 78.675781 134.97422 127.55078 96.324219 C 157.76328 71.849219 195.5 57.100781 234.25 54.300781 C 238.99844 53.915234 243.7565 53.720127 248.51367 53.712891 z "
       transform="scale(0.8,0.8)"
       id="path3340" />
    <path
       d="m 199.41,71.23 110.36,190.56 -83.78,0.2 0.01,-15.98 55.05,-0.01 -18.01,-30.99 -37.03,-0.04 -0.13,-61.17 -29.47689,50.6 -0.24149,10.54 -25.45873,-0.01 C 186.18181,188.44169 201.51704,161.86986 216.89,135.32 L 199.52,105.08 117.6,245.83 196.01,246.01 196,261.98 88.55,261.9 Z"
       id="path3344"
       inkscape:connector-curvature="0"
       style="fill:#03f903"
       sodipodi:nodetypes="cccccccccccccccccc" />
    <path
       style="fill:#03f903"
       d="m 239.5,78.12 c 46.01,14.56 81.79,57.68 86.32,105.92 1.22,13.47 2.01,27.41 -2.07,40.51 -24.74,-42.12 -48.99,-84.53 -73.6,-126.74 -3.76,-6.45 -7.49,-12.93 -10.65,-19.69 z"
       id="path3346"
       inkscape:connector-curvature="0" />
    <path
       style="fill:#03f903"
       d="m 125.23,95.25 c 10.48,-6.92 21.33,-14.23 33.88,-16.63 -6.5,13.6 -15.26,25.93 -22.29,39.24 -15.22,25.55 -29.72,51.51 -44.83,77.13 -5.49,10.02 -11.12,20 -17.64,29.39 C 63.8,176.28 84.46,122.96 125.23,95.25 Z"
       id="path3348"
       inkscape:connector-curvature="0" />
    <path
       style="fill:#03f903"
       d="m 114.41,293.38 c 56.62,-0.77 113.25,-0.35 169.87,-0.23 -15.07,13.7 -33.77,23.29 -53.34,28.72 -17.86,4.52 -36.64,3.88 -54.81,1.91 -22.74,-4.41 -44.45,-14.91 -61.72,-30.4 z"
       id="path3350"
       inkscape:connector-curvature="0" />
  </g>
</svg>
